#!OML:ASF G:\JayActor3\Patient Classification 1\Patient 1\Session 6\male.ASF
:FULLY-SPECIFIED
:DEGREES
3492
root -2.4404 16.2628 0.309611 2157.19 -35.0224 -2161.34
lowerback -3.88959 0.474502 -1.09219
upperback 8.44684 0.723643 -0.566198
thorax 11.2031 0.253785 0.0937504
lowerneck 10.7739 -0.0487648 3.05685
upperneck 0.632513 0.273741 -0.254923
head -1.62867 0.128643 -0.615867
rclavicle 7.17613e-014 -3.57812e-015
rhumerus -32.7421 -14.5726 -80.8455
rradius 34.8523
rwrist 2.04971
rhand -16.3958 -12.2771
rfingers 7.12502
rthumb 9.81832 -42.0282
lclavicle 7.17613e-014 -3.57812e-015
lhumerus -25.9147 18.0036 77.5007
lradius 17.096
lwrist 13.6526
lhand -0.218814 23.8229
lfingers 7.12502
lthumb 25.3808 52.1536
rfemur -26.2992 -11.5978 20.6947
rtibia 42.3925
rfoot -24.8513 -24.0099
rtoes 13.1163
lfemur 17.792 5.60442 -16.2886
ltibia 13.1878
lfoot -16.9735 3.81362
ltoes -6.71208
3493
root -2.51056 16.2575 0.331925 2156.98 -34.897 -2161.16
lowerback -3.90196 0.499133 -1.09136
upperback 8.52202 0.75682 -0.56439
thorax 11.2962 0.2687 0.0997545
lowerneck 10.9309 -0.125425 3.08047
upperneck 0.560157 0.180637 -0.273367
head -1.68223 0.0820244 -0.622584
rclavicle -2.42517e-014 6.36111e-015
rhumerus -32.5492 -14.5604 -80.9963
rradius 34.8809
rwrist 2.12315
rhand -16.499 -12.2631
rfingers 7.12502
rthumb 9.71873 -42.0189
lclavicle -2.42517e-014 6.36111e-015
lhumerus -25.7054 17.5844 77.7061
lradius 17.4336
lwrist 14.0597
lhand -0.558892 23.6768
lfingers 7.12502
lthumb 25.0549 52.0534
rfemur -26.1296 -11.5437 20.6673
rtibia 42.6516
rfoot -24.9022 -24.3962
rtoes 13.7959
lfemur 18.1242 5.61887 -16.123
ltibia 13.1494
lfoot -16.6298 3.46728
ltoes -7.19913
3494
root -2.5818 16.2544 0.354266 2156.79 -34.7667 -2160.99
lowerback -3.92431 0.517628 -1.08467
upperback 8.58244 0.781303 -0.561086
thorax 11.3787 0.280054 0.103064
lowerneck 11.043 -0.204968 3.08541
upperneck 0.501004 0.0802391 -0.279024
head -1.72359 0.0316536 -0.621256
rclavicle 1.4551e-013 -3.02153e-014
rhumerus -32.4011 -14.5556 -81.1456
rradius 34.9306
rwrist 2.18321
rhand -16.609 -12.2491
rfingers 7.12502
rthumb 9.6126 -42.0098
lclavicle 1.4551e-013 -3.02153e-014
lhumerus -25.5589 17.1899 77.8819
lradius 17.7884
lwrist 14.4883
lhand -0.916349 23.5414
lfingers 7.12502
lthumb 24.7124 51.9654
rfemur -25.9834 -11.5076 20.6501
rtibia 42.916
rfoot -24.9846 -24.7385
rtoes 14.2288
lfemur 18.4126 5.61292 -15.9566
ltibia 13.1385
lfoot -16.2735 3.15063
ltoes -7.68293
3495
root -2.65408 16.2532 0.376389 2156.63 -34.6302 -2160.82
lowerback -3.95242 0.525503 -1.08495
upperback 8.62443 0.79227 -0.55733
thorax 11.4438 0.284519 0.109016
lowerneck 11.1028 -0.283289 3.06315
upperneck 0.465129 -0.023456 -0.269065
head -1.7479 -0.0204783 -0.60966
rclavicle -6.88789e-014 2.5842e-014
rhumerus -32.2972 -14.5408 -81.2953
rradius 34.9954
rwrist 2.21953
rhand -16.72 -12.2425
rfingers 7.12502
rthumb 9.50552 -42.0081
lclavicle -6.88789e-014 2.5842e-014
lhumerus -25.4775 16.8681 78.0131
lradius 18.1372
lwrist 14.893
lhand -1.2674 23.4046
lfingers 7.12502
lthumb 24.3759 51.8742
rfemur -25.8513 -11.4746 20.6298
rtibia 43.1793
rfoot -25.1179 -25.0163
rtoes 14.4219
lfemur 18.6325 5.60771 -15.7899
ltibia 13.1951
lfoot -15.9099 2.84324
ltoes -8.15901
3496
root -2.7274 16.2535 0.397747 2156.51 -34.4865 -2160.67
lowerback -3.97662 0.528131 -1.0767
upperback 8.64421 0.795019 -0.549822
thorax 11.4812 0.285943 0.113104
lowerneck 11.1086 -0.366546 3.03188
upperneck 0.460001 -0.136769 -0.253523
head -1.75244 -0.0772029 -0.593886
rclavicle -1.27123e-013 3.10104e-014
rhumerus -32.2401 -14.5117 -81.4452
rradius 35.0679
rwrist 2.20524
rhand -16.8501 -12.2501
rfingers 7.12502
rthumb 9.37999 -42.0214
lclavicle -1.27123e-013 3.10104e-014
lhumerus -25.4502 16.6082 78.1064
lradius 18.4604
lwrist 15.2763
lhand -1.62968 23.2768
lfingers 7.12502
lthumb 24.0285 51.7926
rfemur -25.7209 -11.4253 20.6251
rtibia 43.4282
rfoot -25.3217 -25.2238
rtoes 14.4095
lfemur 18.7662 5.59845 -15.6041
ltibia 13.3464
lfoot -15.5486 2.53857
ltoes -8.601
3497
root -2.80183 16.2555 0.418223 2156.41 -34.3345 -2160.51
lowerback -3.99755 0.525619 -1.08074
upperback 8.63493 0.792842 -0.549563
thorax 11.4834 0.284794 0.115568
lowerneck 11.0666 -0.454827 3.00928
upperneck 0.491244 -0.257632 -0.238776
head -1.73653 -0.137324 -0.579239
rclavicle 3.82164e-014 -1.19271e-014
rhumerus -32.2347 -14.4776 -81.5993
rradius 35.1358
rwrist 2.15313
rhand -16.9951 -12.2573
rfingers 7.12502
rthumb 9.24006 -42.0349
lclavicle 3.82164e-014 -1.19271e-014
lhumerus -25.4777 16.4046 78.1517
lradius 18.7411
lwrist 15.6293
lhand -1.99117 23.1563
lfingers 7.12502
lthumb 23.6819 51.7175
rfemur -25.5934 -11.3589 20.6138
rtibia 43.6511
rfoot -25.5801 -25.3652
rtoes 14.2583
lfemur 18.8021 5.6086 -15.4145
ltibia 13.5954
lfoot -15.1784 2.21882
ltoes -9.03136
3498
root -2.87749 16.2594 0.437837 2156.34 -34.165 -2160.34
lowerback -4.01028 0.516367 -1.09985
upperback 8.5949 0.78402 -0.559189
thorax 11.4454 0.280182 0.114847
lowerneck 10.9843 -0.550612 3.00931
upperneck 0.558792 -0.387586 -0.232808
head -1.70171 -0.201423 -0.570737
rclavicle -5.09386e-014 7.55382e-015
rhumerus -32.2784 -14.4389 -81.759
rradius 35.1884
rwrist 2.06945
rhand -17.1456 -12.2585
rfingers 7.12502
rthumb 9.09488 -42.0424
lclavicle -5.09386e-014 7.55382e-015
lhumerus -25.5571 16.2513 78.1458
lradius 18.9697
lwrist 15.9478
lhand -2.33744 23.0404
lfingers 7.12502
lthumb 23.3497 51.6442
rfemur -25.4579 -11.2837 20.5949
rtibia 43.8324
rfoot -25.8696 -25.4655
rtoes 14.0409
lfemur 18.75 5.60918 -15.2348
ltibia 13.9229
lfoot -14.7962 1.91057
ltoes -9.47041
3499
root -2.95443 16.2657 0.45729 2156.28 -33.9746 -2160.16
lowerback -4.02499 0.499414 -1.13413
upperback 8.52999 0.767082 -0.575426
thorax 11.3802 0.271095 0.114429
lowerneck 10.8675 -0.651278 3.02819
upperneck 0.657269 -0.523377 -0.233687
head -1.65086 -0.267983 -0.567404
rclavicle 3.43401e-014 -4.37326e-015
rhumerus -32.3591 -14.3936 -81.9212
rradius 35.2189
rwrist 1.96323
rhand -17.2905 -12.2512
rfingers 7.12502
rthumb 8.95506 -42.0412
lclavicle 3.43401e-014 -4.37326e-015
lhumerus -25.6764 16.1386 78.1028
lradius 19.1409
lwrist 16.2292
lhand -2.66654 22.9336
lfingers 7.12502
lthumb 23.034 51.5771
rfemur -25.3031 -11.2096 20.569
rtibia 43.9587
rfoot -26.1905 -25.537
rtoes 13.8428
lfemur 18.6363 5.61404 -15.0557
ltibia 14.292
lfoot -14.3816 1.59312
ltoes -9.87913
3500
root -3.03241 16.2747 0.477327 2156.24 -33.7574 -2159.99
lowerback -4.04414 0.472038 -1.16575
upperback 8.44849 0.736034 -0.592576
thorax 11.2991 0.255754 0.10969
lowerneck 10.7259 -0.752287 3.05821
upperneck 0.774405 -0.659502 -0.239352
head -1.58974 -0.334418 -0.567639
rclavicle 4.5472e-014 -2.48481e-014
rhumerus -32.4635 -14.3408 -82.0811
rradius 35.2207
rwrist 1.85545
rhand -17.4091 -12.2458
rfingers 7.12502
rthumb 8.84058 -42.0406
lclavicle 4.5472e-014 -2.48481e-014
lhumerus -25.8277 16.0726 78.0321
lradius 19.256
lwrist 16.4454
lhand -2.95426 22.8314
lfingers 7.12502
lthumb 22.7579 51.5091
rfemur -25.1113 -11.1571 20.5487
rtibia 44.0181
rfoot -26.5435 -25.5856
rtoes 13.7066
lfemur 18.4915 5.59667 -14.8751
ltibia 14.6707
lfoot -13.9304 1.29612
ltoes -10.2761
3501
root -3.11125 16.2864 0.498461 2156.22 -33.508 -2159.85
lowerback -4.06853 0.429263 -1.18177
upperback 8.36119 0.681586 -0.59742
thorax 11.2148 0.229879 0.106366
lowerneck 10.5681 -0.846879 3.07806
upperneck 0.903079 -0.789194 -0.247202
head -1.52202 -0.397497 -0.567331
rclavicle 3.32964e-014 -1.25234e-014
rhumerus -32.5762 -14.2652 -82.2288
rradius 35.1929
rwrist 1.75669
rhand -17.4738 -12.2437
rfingers 7.12502
rthumb 8.77815 -42.0412
lclavicle 3.32964e-014 -1.25234e-014
lhumerus -26.0059 16.0205 77.9637
lradius 19.3305
lwrist 16.6169
lhand -3.21612 22.7339
lfingers 7.12502
lthumb 22.5065 51.4422
rfemur -24.8615 -11.1424 20.5513
rtibia 44.0033
rfoot -26.9305 -25.6174
rtoes 13.6541
lfemur 18.342 5.52059 -14.6884
ltibia 15.0422
lfoot -13.4504 1.05074
ltoes -10.6469
3502
root -3.19042 16.3005 0.52101 2156.21 -33.2267 -2159.75
lowerback -4.09657 0.372617 -1.16985
upperback 8.27714 0.603982 -0.583629
thorax 11.1369 0.194146 0.104345
lowerneck 10.3952 -0.931543 3.07763
upperneck 1.03718 -0.908652 -0.250984
head -1.44972 -0.455552 -0.56297
rclavicle 8.61732e-014 -1.47101e-014
rhumerus -32.6888 -14.1726 -82.3563
rradius 35.1371
rwrist 1.69116
rhand -17.4884 -12.2506
rfingers 7.12502
rthumb 8.76401 -42.0486
lclavicle 8.61732e-014 -1.47101e-014
lhumerus -26.1983 16.0269 77.8986
lradius 19.3612
lwrist 16.6866
lhand -3.43768 22.643
lfingers 7.12502
lthumb 22.2939 51.3769
rfemur -24.5432 -11.1755 20.5851
rtibia 43.9141
rfoot -27.3521 -25.6282
rtoes 13.7067
lfemur 18.199 5.41149 -14.4722
ltibia 15.4107
lfoot -12.939 0.826833
ltoes -10.9637
3503
root -3.26953 16.3163 0.544877 2156.21 -32.913 -2159.7
lowerback -4.11951 0.297233 -1.12739
upperback 8.20367 0.495618 -0.545039
thorax 11.0683 0.144627 0.107666
lowerneck 10.2008 -0.999961 3.04649
upperneck 1.18026 -1.01088 -0.253436
head -1.37041 -0.505037 -0.553964
rclavicle 4.94974e-014 1.59028e-015
rhumerus -32.7902 -14.0525 -82.4594
rradius 35.0592
rwrist 1.65815
rhand -17.4392 -12.2668
rfingers 7.12502
rthumb 8.81149 -42.0628
lclavicle 4.94974e-014 1.59028e-015
lhumerus -26.4032 16.0706 77.8535
lradius 19.3634
lwrist 16.6808
lhand -3.61737 22.5496
lfingers 7.12502
lthumb 22.1213 51.3041
rfemur -24.1504 -11.2642 20.6534
rtibia 43.7586
rfoot -27.7855 -25.6166
rtoes 13.8476
lfemur 18.0649 5.29337 -14.2087
ltibia 15.7934
lfoot -12.3967 0.607559
ltoes -11.2519
3504
root -3.34827 16.3334 0.569456 2156.21 -32.5734 -2159.7
lowerback -4.13 0.208862 -1.04986
upperback 8.14268 0.363696 -0.481314
thorax 11.0065 0.0851345 0.115079
lowerneck 9.97508 -1.05266 2.98875
upperneck 1.34002 -1.09624 -0.253808
head -1.27994 -0.546118 -0.540782
rclavicle 5.01931e-014 -9.14409e-015
rhumerus -32.8765 -13.9123 -82.5358
rradius 34.9658
rwrist 1.65009
rhand -17.3336 -12.3005
rfingers 7.12502
rthumb 8.91341 -42.0922
lclavicle 5.01931e-014 -9.14409e-015
lhumerus -26.6111 16.111 77.8433
lradius 19.3469
lwrist 16.649
lhand -3.77206 22.448
lfingers 7.12502
lthumb 21.9728 51.22
rfemur -23.6945 -11.3953 20.7615
rtibia 43.5512
rfoot -28.2244 -25.5867
rtoes 14.032
lfemur 17.9316 5.20283 -13.8767
ltibia 16.2048
lfoot -11.8194 0.35838
ltoes -11.4958
3505
root -3.42674 16.3511 0.593884 2156.22 -32.2185 -2159.74
lowerback -4.13665 0.114227 -0.956079
upperback 8.08528 0.220522 -0.404528
thorax 10.9465 0.0207523 0.125888
lowerneck 9.71548 -1.09324 2.92652
upperneck 1.52672 -1.16705 -0.25514
head -1.17496 -0.579811 -0.528068
rclavicle 1.36913e-014 -5.56597e-015
rhumerus -32.9591 -13.7839 -82.5907
rradius 34.8666
rwrist 1.66902
rhand -17.1797 -12.3412
rfingers 7.12502
rthumb 9.06196 -42.1266
lclavicle 1.36913e-014 -5.56597e-015
lhumerus -26.8209 16.1897 77.837
lradius 19.3076
lwrist 16.5553
lhand -3.88998 22.3524
lfingers 7.12502
lthumb 21.8596 51.1376
rfemur -23.2158 -11.5482 20.8949
rtibia 43.3113
rfoot -28.6561 -25.543
rtoes 14.2402
lfemur 17.7677 5.16228 -13.4915
ltibia 16.659
lfoot -11.2062 0.0689004
ltoes -11.693
3506
root -3.50525 16.369 0.617731 2156.23 -31.863 -2159.76
lowerback -4.13204 0.0211233 -0.871232
upperback 8.02945 0.0801353 -0.32717
thorax 10.8816 -0.0431674 0.142711
lowerneck 9.4157 -1.12318 2.86579
upperneck 1.7508 -1.22486 -0.256542
head -1.05134 -0.606826 -0.516494
rclavicle -2.42269e-014 -1.59028e-015
rhumerus -33.0429 -13.6899 -82.6232
rradius 34.7661
rwrist 1.72231
rhand -16.9826 -12.3844
rfingers 7.12502
rthumb 9.25218 -42.1614
lclavicle -2.42269e-014 -1.59028e-015
lhumerus -27.0336 16.2495 77.8425
lradius 19.2618
lwrist 16.4776
lhand -3.98389 22.2668
lfingers 7.12502
lthumb 21.7694 51.0626
rfemur -22.7308 -11.7024 21.0257
rtibia 43.0577
rfoot -29.0713 -25.492
rtoes 14.4459
lfemur 17.5693 5.17004 -13.09
ltibia 17.1638
lfoot -10.572 -0.241448
ltoes -11.8506
